<svg width="38" height="44" viewBox="0 0 38 44" fill="none" xmlns="http://www.w3.org/2000/svg">
<circle cx="17.5" cy="17.5" r="9.5" fill="#BFD7FF"/>
<path fill-rule="evenodd" clip-rule="evenodd" d="M27.4994 31.8637C24.6649 33.8406 21.2179 35 17.5 35C7.83502 35 0 27.165 0 17.5C0 7.83502 7.83502 0 17.5 0C27.165 0 35 7.83502 35 17.5C35 19.1243 34.7787 20.697 34.3646 22.1894C34.1734 22.1087 33.9731 22.0413 33.7637 21.9873C33.2673 21.849 32.7179 21.7798 32.1157 21.7798C30.5614 21.7798 29.0477 22.1541 27.5747 22.9028L28.2339 24.4775C29.5197 23.8509 30.7445 23.5376 31.9082 23.5376C32.6325 23.5376 33.2103 23.6963 33.6416 24.0137C33.6693 24.034 33.6961 24.0552 33.722 24.0771C33.1186 25.5638 32.3168 26.9488 31.3495 28.1992C30.9445 28.3692 30.5936 28.5284 30.2969 28.6768C29.8981 28.8721 29.4912 29.1203 29.0762 29.4214C28.6693 29.7144 28.3519 30.0317 28.124 30.3735C27.8962 30.7153 27.709 31.1344 27.5625 31.6309C27.5397 31.7069 27.5187 31.7845 27.4994 31.8637ZM27 17.5C27 22.7467 22.7467 27 17.5 27C12.2533 27 8 22.7467 8 17.5C8 12.2533 12.2533 8 17.5 8C22.7467 8 27 12.2533 27 17.5Z" fill="#629DE3"/>
<path d="M27.5747 22.9028C29.0477 22.1541 30.5614 21.7798 32.1157 21.7798C32.7179 21.7798 33.2673 21.849 33.7637 21.9873C34.2682 22.1175 34.7199 22.325 35.1187 22.6099C35.5256 22.8947 35.8429 23.2812 36.0708 23.7695C36.2987 24.2497 36.4126 24.8112 36.4126 25.4541C36.4126 25.9831 36.3516 26.4469 36.2295 26.8457C36.0016 27.5618 35.4971 28.16 34.7158 28.6401C34.3252 28.8843 33.4748 29.2912 32.1646 29.8608C32.1483 29.869 32.1279 29.8812 32.1035 29.8975C32.0791 29.9056 32.0588 29.9137 32.0425 29.9219C32.0262 29.9219 32.0059 29.93 31.9814 29.9463C31.5094 30.1497 31.2043 30.284 31.0659 30.3491C30.9357 30.4142 30.7201 30.5485 30.4189 30.752C30.126 30.9554 29.9347 31.1466 29.8452 31.3257C29.7638 31.5047 29.6743 31.7529 29.5767 32.0703C29.4871 32.3877 29.4424 32.7539 29.4424 33.1689H36.1685V35H27.3428V33.291C27.3428 32.6725 27.416 32.1191 27.5625 31.6309C27.709 31.1344 27.8962 30.7153 28.124 30.3735C28.3519 30.0317 28.6693 29.7144 29.0762 29.4214C29.4912 29.1203 29.8981 28.8721 30.2969 28.6768C30.7038 28.4733 31.2124 28.2495 31.8228 28.0054C32.2866 27.8182 32.6366 27.6676 32.8726 27.5537C33.1086 27.4398 33.3527 27.2892 33.605 27.1021C33.8573 26.9067 34.0322 26.6829 34.1299 26.4307C34.2357 26.1784 34.2886 25.8773 34.2886 25.5273C34.2886 24.8356 34.0729 24.3311 33.6416 24.0137C33.2103 23.6963 32.6325 23.5376 31.9082 23.5376C30.7445 23.5376 29.5197 23.8509 28.2339 24.4775L27.5747 22.9028Z" fill="#354168"/>
<mask id="mask0" mask-type="alpha" maskUnits="userSpaceOnUse" x="0" y="0" width="35" height="35">
<path fill-rule="evenodd" clip-rule="evenodd" d="M17.5 35C27.165 35 35 27.165 35 17.5C35 7.83502 27.165 0 17.5 0C7.83502 0 0 7.83502 0 17.5C0 27.165 7.83502 35 17.5 35ZM17.5 27C22.7467 27 27 22.7467 27 17.5C27 12.2533 22.7467 8 17.5 8C12.2533 8 8 12.2533 8 17.5C8 22.7467 12.2533 27 17.5 27Z" fill="#FE6A4E"/>
</mask>
<g mask="url(#mask0)">
<path d="M27.5747 22.9028C29.0477 22.1541 30.5614 21.7798 32.1157 21.7798C32.7179 21.7798 33.2673 21.849 33.7637 21.9873C34.2682 22.1175 34.7199 22.325 35.1187 22.6099C35.5256 22.8947 35.8429 23.2812 36.0708 23.7695C36.2987 24.2497 36.4126 24.8112 36.4126 25.4541C36.4126 25.9831 36.3516 26.4469 36.2295 26.8457C36.0016 27.5618 35.4971 28.16 34.7158 28.6401C34.3252 28.8843 33.4748 29.2912 32.1646 29.8608C32.1483 29.869 32.1279 29.8812 32.1035 29.8975C32.0791 29.9056 32.0588 29.9137 32.0425 29.9219C32.0262 29.9219 32.0059 29.93 31.9814 29.9463C31.5094 30.1497 31.2043 30.284 31.0659 30.3491C30.9357 30.4142 30.7201 30.5485 30.4189 30.752C30.126 30.9554 29.9347 31.1466 29.8452 31.3257C29.7638 31.5047 29.6743 31.7529 29.5767 32.0703C29.4871 32.3877 29.4424 32.7539 29.4424 33.1689H36.1685V35H27.3428V33.291C27.3428 32.6725 27.416 32.1191 27.5625 31.6309C27.709 31.1344 27.8962 30.7153 28.124 30.3735C28.3519 30.0317 28.6693 29.7144 29.0762 29.4214C29.4912 29.1203 29.8981 28.8721 30.2969 28.6768C30.7038 28.4733 31.2124 28.2495 31.8228 28.0054C32.2866 27.8182 32.6366 27.6676 32.8726 27.5537C33.1086 27.4398 33.3527 27.2892 33.605 27.1021C33.8573 26.9067 34.0322 26.6829 34.1299 26.4307C34.2357 26.1784 34.2886 25.8773 34.2886 25.5273C34.2886 24.8356 34.0729 24.3311 33.6416 24.0137C33.2103 23.6963 32.6325 23.5376 31.9082 23.5376C30.7445 23.5376 29.5197 23.8509 28.2339 24.4775L27.5747 22.9028Z" fill="white"/>
</g>
<mask id="mask1" mask-type="alpha" maskUnits="userSpaceOnUse" x="0" y="0" width="35" height="35">
<path fill-rule="evenodd" clip-rule="evenodd" d="M17.5 35C27.165 35 35 27.165 35 17.5C35 7.83502 27.165 0 17.5 0C7.83502 0 0 7.83502 0 17.5C0 27.165 7.83502 35 17.5 35ZM17.5 27C22.7467 27 27 22.7467 27 17.5C27 12.2533 22.7467 8 17.5 8C12.2533 8 8 12.2533 8 17.5C8 22.7467 12.2533 27 17.5 27Z" fill="#FE6A4E"/>
</mask>
<g mask="url(#mask1)">
<rect x="20.8271" y="-13" width="21.5304" height="45" transform="rotate(50.7087 20.8271 -13)" fill="url(#paint0_linear)"/>
</g>
<mask id="mask2" mask-type="alpha" maskUnits="userSpaceOnUse" x="8" y="8" width="19" height="19">
<circle cx="17.5" cy="17.5" r="9.5" fill="#FDD54C"/>
</mask>
<g mask="url(#mask2)">
<rect x="20.6428" y="-15.8967" width="23.7638" height="45" transform="rotate(50.7087 20.6428 -15.8967)" fill="url(#paint1_linear)"/>
</g>
<defs>
<linearGradient id="paint0_linear" x1="28.1829" y1="9.59267" x2="31.5924" y2="32" gradientUnits="userSpaceOnUse">
<stop stop-color="#6CAEFB"/>
<stop offset="1" stop-color="#F2F6FF"/>
</linearGradient>
<linearGradient id="paint1_linear" x1="32.6441" y1="-0.723811" x2="41.7902" y2="19.6808" gradientUnits="userSpaceOnUse">
<stop stop-color="#F2F6FF"/>
<stop offset="0.739649" stop-color="#CFE0FC"/>
</linearGradient>
</defs>
</svg>
